<svg id="Layer_1" enable-background="new 0 0 512 512" height="512" viewBox="0 0 512 512" width="512" xmlns="http://www.w3.org/2000/svg"><g><path d="m80.622 60.445c.101 4.142 3.57 7.429 7.679 7.317 4.141-.101 7.417-3.539 7.316-7.68-.311-12.849-.657-25.754-1.033-38.461 17.769-1.302 67.417-4.63 132.362-6.413-2.118 49.605-3.607 100.653-4.429 151.865-.066 4.142 3.237 7.554 7.379 7.62.041 0 .082.001.123.001 4.086 0 7.431-3.279 7.497-7.38.862-53.715 2.46-107.244 4.749-159.11.044-.475.044-.961-.005-1.453-.391-3.905-3.706-6.844-7.65-6.75-86.136 2.15-147.74 7.16-148.352 7.21-3.979.327-7.004 3.714-6.882 7.704.458 14.974.878 30.292 1.246 45.53z"/><path d="m430.357 365.544c-1.485-1.445-3.493-2.209-5.572-2.116-59.626 2.727-122.475 3.071-186.928 1.027-.47-19.679-1.627-79.255-.806-161.479.042-4.142-3.283-7.534-7.425-7.575-4.115-.035-7.533 3.283-7.574 7.425-1.012 101.345.975 168.452.995 169.119.12 3.952 3.287 7.133 7.239 7.269 64.445 2.215 127.376 2.064 187.195-.45-.766 39.262-1.999 78.318-3.672 116.313-146.988 5.851-286.604-3.284-319.206-5.659 1.108-35.617 5.602-198.809 1.77-394.833-.081-4.142-3.507-7.412-7.645-7.352-4.142.081-7.433 3.504-7.352 7.645 4.311 220.556-1.934 399.427-1.998 401.208-.143 4.005 2.887 7.414 6.88 7.742 1.27.104 101.176 8.172 226.304 8.172 34.824 0 71.604-.625 108.751-2.22 3.882-.167 6.994-3.271 7.17-7.152 1.954-42.85 3.347-87.117 4.143-131.573.038-2.071-.784-4.066-2.269-5.511z"/><path d="m208.462 34.127c-1.415-1.48-3.373-2.317-5.42-2.317-.476 0-47.983.048-86.169 4.168-3.884.419-6.796 3.75-6.693 7.656 2.47 93.217 3.252 191.39 2.326 291.792-.039 4.142 3.288 7.531 7.43 7.569h.071c4.109 0 7.46-3.313 7.498-7.431.906-98.082.183-194.049-2.148-285.362 26.63-2.479 56.151-3.146 69.878-3.326-1.236 32.821-5.529 165.385-2.48 354.104.064 3.954 3.187 7.18 7.137 7.37 42.488 2.056 113.469 3.457 187.888 1.408-.485 18.788-1.082 37.614-1.779 56.143-11.462.314-23.261.558-35.168.726-4.142.058-7.452 3.463-7.394 7.605.058 4.106 3.404 7.395 7.498 7.395.035 0 .072 0 .107-.001 14.427-.202 28.696-.516 42.411-.933 3.938-.12 7.112-3.266 7.266-7.203.918-23.443 1.676-47.425 2.252-71.277.05-2.06-.75-4.05-2.212-5.502s-3.462-2.241-5.517-2.176c-72.86 2.244-143.245 1.085-187.602-.844-3.262-213.171 2.83-352.646 2.893-354.045.09-2.046-.658-4.04-2.073-5.519z"/><path d="m119.702 363.7c-4.134-.046-7.544 3.258-7.6 7.4-.568 42.519-1.345 76.387-1.896 97.312-.105 4.017 2.972 7.403 6.98 7.68 39.261 2.714 112.708 5.82 192.569 5.819 1.927 0 3.872-.001 5.806-.005 4.142-.008 7.494-3.372 7.486-7.514s-3.38-7.459-7.514-7.486c-77.019.162-148.716-2.665-190.146-5.303.532-21.159 1.207-52.281 1.715-90.302.054-4.143-3.258-7.545-7.4-7.601z"/></g></svg>