<svg id="Layer_1" enable-background="new 0 0 512 512" height="512" viewBox="0 0 512 512" width="512" xmlns="http://www.w3.org/2000/svg"><g><path d="m61.175 68.026c.074 4.143 3.483 7.398 7.633 7.365 4.142-.074 7.438-3.491 7.365-7.633-.392-21.908-.759-37.837-.967-46.262 15.893-1.803 58.349-6.039 108.386-6.302 10.23 22.766 58.462 127.419 122.754 224.184 1.84 2.77 5.28 3.996 8.46 3.016 3.176-.98 5.328-3.936 5.286-7.26-1.369-109.549 7.402-196.216 10.111-220.11 49.256.353 90.891 4.512 106.592 6.293-.768 31.398-3.73 167.289-2.144 336.429.039 4.118 3.389 7.43 7.498 7.43h.072c4.142-.039 7.468-3.428 7.43-7.57-1.803-192.108 2.271-341.228 2.313-342.712.107-3.838-2.702-7.138-6.509-7.644-.545-.072-55.301-7.25-121.912-7.25-3.77 0-6.953 2.797-7.438 6.535-.118.91-11.013 86.314-11.156 203.135-64.202-101.247-109.136-203.884-109.614-204.982-1.191-2.736-3.893-4.506-6.877-4.506-66.611 0-121.367 7.174-121.913 7.247-3.807.506-6.616 3.805-6.509 7.644.005.192.544 19.632 1.139 52.953z"/><path d="m451.965 497.134c-.831-34.31-1.485-70.018-1.945-106.133-.052-4.11-3.399-7.405-7.497-7.405-.032 0-.065 0-.098 0-4.142.053-7.456 3.453-7.403 7.595.43 33.788 1.029 67.221 1.785 99.491-16.005 1.818-59.018 6.113-109.653 6.311-70.789-89.396-120.351-195.143-120.848-196.211-1.494-3.21-5.03-4.94-8.482-4.144-3.451.795-5.877 3.896-5.816 7.437.02 1.144 1.761 112.395-9.991 192.903-49.361-.342-91.106-4.511-106.822-6.294 3.631-154.887 2.84-296.813 1.521-389.134-.059-4.105-3.404-7.393-7.497-7.393-.036 0-.072 0-.109.001-4.142.059-7.451 3.464-7.392 7.606 1.337 93.545 2.13 238.073-1.681 395.373-.093 3.829 2.714 7.112 6.51 7.616.546.072 55.302 7.248 121.913 7.248 3.689 0 6.83-2.683 7.407-6.327 8.863-55.949 10.83-128.77 11.177-169.902 20.192 38.794 60.238 110.41 110.645 173.415 1.424 1.779 3.578 2.814 5.856 2.814 66.611 0 121.367-7.178 121.912-7.25 3.794-.506 6.601-3.789 6.508-7.617z"/><path d="m97.483 477.861c22.077 1.969 42.879 3.205 63.595 3.778.07.002.14.003.21.003 3.683 0 6.835-2.683 7.407-6.342 1.599-10.225 3.316-34.248 5.252-73.44.204-4.137-2.984-7.657-7.121-7.861-4.155-.211-7.657 2.984-7.861 7.121-1.545 31.286-2.975 53.181-4.265 65.313-15.978-.556-32.095-1.515-48.907-2.912 3.711-183.305 1.376-346.256.013-414.875 14.917-1.256 33.862-2.578 56.667-3.165 78.86 167.521 173.689 292.87 174.646 294.127 1.959 2.575 5.351 3.603 8.406 2.55 3.059-1.052 5.099-3.946 5.062-7.181-.009-.713-.817-72.332 1.173-156.875.098-4.141-3.181-7.577-7.321-7.674-.061-.001-.12-.002-.18-.002-4.061 0-7.398 3.243-7.495 7.323-1.314 55.829-1.411 106.049-1.322 134.06-29.269-41.191-100.463-146.493-161.458-277.112-1.256-2.69-3.987-4.385-6.95-4.325-29.249.601-52.525 2.421-69.535 3.939-3.928.351-6.913 3.684-6.831 7.626 1.344 64.659 4.033 235.826-.016 428.295-.084 3.945 2.902 7.279 6.831 7.629z"/><path d="m180.743 223.705c11.136 21.215 28.295 53.436 47.714 88.252 45.52 81.61 81.138 137.888 105.864 167.268 1.427 1.695 3.527 2.671 5.738 2.671.039 0 .078 0 .118-.001 31.671-.498 57.595-2.542 74.339-4.035 3.93-.351 6.915-3.684 6.832-7.628-4.048-192.549-1.359-363.783-.016-428.467.082-3.943-2.903-7.275-6.831-7.626-20.905-1.866-42.978-3.165-63.833-3.758-3.996-.104-7.404 2.953-7.693 6.958-2.269 31.459-4.063 67.891-5.331 108.285-.13 4.14 3.12 7.602 7.261 7.731.08.003.16.004.24.004 4.032 0 7.364-3.205 7.491-7.265 1.167-37.147 2.778-70.908 4.796-100.488 19.153.684 36.104 1.837 48.761 2.876-1.362 68.646-3.697 231.661.014 415.042-15.625 1.311-37.167 2.808-62.675 3.31-58.129-71.122-161.681-273.494-162.734-275.557-1.558-3.052-4.985-4.657-8.329-3.907-3.343.753-5.75 3.677-5.848 7.102-.026.933-2.705 94.204-6.106 172.979-.179 4.139 3.031 7.638 7.17 7.817 4.147.158 7.638-3.031 7.816-7.169 2.248-52.068 4.181-110.448 5.242-144.394z"/></g></svg>